<svg version="1.1" id="Layer_1" xmlns="http://www.w3.org/2000/svg" xmlns:xlink="http://www.w3.org/1999/xlink" x="0px" y="0px"
	 width="100%" viewBox="0 0 1024 1024" enable-background="new 0 0 1024 1024" xml:space="preserve">
<path fill="#000000" opacity="1.000000" stroke="none" 
	d="
M254.019348,738.118225 
	C262.129883,735.632568 269.966797,733.854675 277.109619,729.728699 
	C287.190155,723.905701 295.850433,716.497314 303.396576,707.772400 
	C315.808594,693.421570 326.320160,677.665588 337.068390,662.064148 
	C346.205750,648.800964 355.479950,635.514160 366.905853,624.077698 
	C379.300812,611.671387 394.002716,603.118774 411.113739,598.346558 
	C422.480591,595.176331 433.837860,594.610413 445.441589,594.678101 
	C476.770752,594.860718 508.101624,594.772217 539.430420,594.988464 
	C544.391235,595.022766 547.139160,593.042969 548.708435,588.533264 
	C554.291260,572.489380 564.932922,562.407227 581.886780,558.348877 
	C595.461121,555.099487 607.869385,556.402893 619.479309,563.829285 
	C631.902649,571.775940 638.329773,583.570251 640.267761,598.052429 
	C642.913513,617.823547 633.268005,636.791138 615.465271,645.775757 
	C593.461060,656.880676 564.150635,650.178833 552.466064,629.644409 
	C551.077759,627.204590 549.720886,624.678040 548.850098,622.027283 
	C547.161316,616.886475 544.052734,614.801147 538.475708,614.843628 
	C509.646515,615.063232 480.814667,615.026917 451.984283,614.921692 
	C443.018280,614.888977 434.096344,613.835999 425.090546,615.162170 
	C403.480408,618.344543 386.692230,629.355591 373.334137,646.161316 
	C355.808533,668.210144 341.591614,692.669556 323.767944,714.490540 
	C310.906952,730.235779 296.401581,743.971008 277.085938,751.828613 
	C242.076385,766.070740 200.515305,757.079956 176.717331,728.043335 
	C167.947861,717.343506 161.462601,705.369812 158.454239,691.461609 
	C155.061600,675.776672 155.377609,660.010437 157.128967,644.450989 
	C158.294159,634.099304 159.991684,623.633545 162.188782,613.303284 
	C163.989670,604.835876 165.197922,596.122437 166.944229,587.609985 
	C169.119003,577.008911 170.805649,566.277161 174.116943,555.894714 
	C176.108017,549.651855 177.097733,543.096558 178.753220,536.737915 
	C181.071182,527.834534 183.738113,519.020752 185.983902,510.100250 
	C188.515762,500.043427 191.580933,490.154205 194.659958,480.260742 
	C197.836899,470.052643 200.747833,459.769012 204.136719,449.617645 
	C207.410721,439.810455 209.808533,429.713898 212.726059,419.784027 
	C219.713226,396.003052 232.063934,375.359283 250.474991,358.799561 
	C263.742004,346.866608 278.890015,337.788300 296.177917,332.377350 
	C309.471924,328.216461 322.900848,324.500397 336.803619,324.952911 
	C356.833832,325.604828 376.122040,329.814453 393.744141,340.215454 
	C401.862152,345.006866 409.423309,350.988068 418.686096,353.614624 
	C424.211975,355.181488 429.622742,357.009583 435.613434,356.899323 
	C451.939789,356.598938 468.275269,356.809723 484.607147,356.791534 
	C492.121735,356.783142 494.705566,354.201813 494.768677,346.521973 
	C494.835785,338.356567 494.604095,330.184357 494.868408,322.026917 
	C494.987061,318.365723 492.618164,315.259979 492.908478,311.827881 
	C493.505188,304.773041 494.491028,297.740570 495.580414,290.739960 
	C498.350677,272.937164 511.583038,263.030609 524.620178,253.219269 
	C533.917847,246.222153 542.368713,238.706955 547.048828,227.741348 
	C551.287354,217.810364 551.895569,207.556152 549.691833,197.095078 
	C548.619263,192.003967 550.309631,187.995102 554.096191,184.765686 
	C557.728149,181.668137 561.393738,182.571457 565.168945,184.778107 
	C568.090881,186.486023 568.235352,189.285187 568.737427,192.053528 
	C572.678772,213.783661 570.492676,234.134033 555.759338,251.858109 
	C550.048645,258.728027 543.063293,264.070709 536.107361,269.506531 
	C531.518372,273.092621 526.915283,276.677277 522.535706,280.510773 
	C516.013855,286.219635 513.042603,293.674652 512.997742,302.233765 
	C512.914673,318.065063 512.961060,333.897369 513.026489,349.728973 
	C513.050415,355.515137 514.266907,356.752136 520.155640,356.759613 
	C545.486511,356.791718 570.821167,356.980530 596.146545,356.595093 
	C605.494019,356.452820 613.485046,351.604919 621.143188,346.559662 
	C632.112183,339.333252 643.550232,333.406403 656.488281,330.094421 
	C666.101624,327.633545 675.803650,325.177734 685.531860,325.013855 
	C712.720886,324.555939 737.760864,332.371735 760.659180,347.151367 
	C787.789124,364.662262 804.801086,389.448151 814.036194,420.056061 
	C821.623840,445.203796 830.041199,470.116150 837.034424,495.424744 
	C847.429199,533.043518 856.326477,571.028320 863.570129,609.425049 
	C868.652466,636.365356 872.395630,663.397278 870.117310,690.685364 
	C867.373169,723.553711 856.935303,753.533630 828.343140,773.335205 
	C806.504700,788.459473 782.287964,790.290649 757.316772,781.816650 
	C750.584167,779.531860 747.972595,773.805420 750.306824,768.657898 
	C751.652283,765.690918 753.991516,764.228210 756.947632,764.171082 
	C760.248047,764.107239 763.791321,764.034912 766.824524,765.108521 
	C775.490967,768.176208 784.532959,767.540100 793.009338,766.379333 
	C809.832947,764.075317 823.000427,754.859619 832.941895,740.900513 
	C840.997131,729.590027 845.649719,716.853455 848.368103,703.570618 
	C851.606018,687.749451 852.167847,671.414612 850.337708,655.486023 
	C849.032959,644.129883 847.333679,632.660522 845.255432,621.307556 
	C843.097046,609.516663 840.674072,597.753174 838.536438,585.951477 
	C836.667419,575.632690 833.658997,565.522156 831.212463,555.305542 
	C828.988342,546.017517 827.024353,536.663391 824.618958,527.423462 
	C821.261475,514.526123 817.690125,501.682281 814.040833,488.863770 
	C811.062439,478.401978 808.010925,467.954559 804.683655,457.599823 
	C796.882202,433.320892 789.865234,408.645020 774.890137,387.460968 
	C766.973999,376.262756 756.069275,368.270966 744.302185,361.449524 
	C727.460083,351.686066 709.374695,345.684021 689.864380,345.473145 
	C668.487122,345.242126 648.918762,351.813660 631.258850,363.814972 
	C616.420044,373.899048 600.191528,377.718475 582.449524,375.436554 
	C580.970398,375.246277 579.454590,375.308624 577.955811,375.308411 
	C532.126526,375.302368 486.296936,375.220581 440.468201,375.381012 
	C432.472076,375.408997 424.494171,375.831329 416.620117,374.185181 
	C407.681793,372.316559 399.759552,368.015045 392.114136,363.259308 
	C373.775513,351.852081 354.014343,343.878723 332.301849,345.629883 
	C286.633362,349.313141 253.027954,371.000580 236.483612,415.144928 
	C224.575302,446.919189 214.570740,479.318726 206.106552,512.203247 
	C201.096832,531.666809 195.383270,550.954163 191.008179,570.578186 
	C185.516830,595.208984 180.344559,619.926208 176.623856,644.882690 
	C174.159378,661.413086 173.846375,678.175415 180.386353,694.030701 
	C189.820068,716.901489 206.399124,731.479919 230.955582,737.060303 
	C238.623108,738.802795 246.025406,738.763062 254.019348,738.118225 
M565.755249,595.303040 
	C561.867798,606.714172 566.806580,620.752075 577.301880,627.718506 
	C589.674927,635.931274 602.927856,633.832947 612.736328,625.597534 
	C627.147522,613.497559 623.398193,584.791138 600.815308,576.533752 
	C588.256897,571.941895 571.954895,576.848206 565.755249,595.303040 
z"/>
<path fill="#000000" opacity="1.000000" stroke="none" 
	d="
M369.065613,451.464905 
	C379.023926,450.977600 388.638885,449.248474 398.098816,452.374115 
	C403.194672,454.057800 405.383453,458.012390 406.201141,462.819336 
	C408.056274,473.724762 406.935974,484.685822 406.160645,495.591003 
	C405.691711,502.186768 399.584991,507.069427 392.677979,507.306000 
	C383.212158,507.630188 373.749237,508.099640 364.280914,508.258453 
	C360.715515,508.318298 359.195618,509.448364 359.273834,513.207397 
	C359.457581,522.036377 359.452637,530.874878 359.274139,539.704468 
	C359.046082,550.987427 354.405579,557.280823 345.702606,558.255127 
	C342.735687,558.587341 339.709412,558.415283 336.710083,558.426697 
	C329.876984,558.452698 323.043396,558.498169 316.210693,558.445679 
	C308.491547,558.386292 302.782471,552.573730 302.776306,544.834534 
	C302.768890,535.501404 302.815430,526.168274 302.802032,516.835144 
	C302.792114,509.939941 302.168854,509.431091 295.494507,509.292572 
	C286.681702,509.109680 277.873413,508.549103 269.061737,508.512909 
	C259.511749,508.473633 258.107147,504.181732 256.994385,495.880341 
	C255.540466,485.033844 256.335388,473.967957 256.806122,463.006622 
	C257.049591,457.337341 263.035034,452.849365 270.150482,452.758179 
	C278.315704,452.653534 286.483215,452.738983 294.649689,452.717926 
	C302.274353,452.698273 302.761383,452.198486 302.774567,444.374176 
	C302.788605,436.041077 302.789459,427.707855 302.766174,419.374786 
	C302.736938,408.907410 308.933502,402.706665 319.420502,402.730103 
	C325.753601,402.744263 332.097656,402.964142 338.416321,402.662933 
	C343.097076,402.439880 347.335419,403.968048 351.438171,405.537170 
	C358.970612,408.418030 358.785889,415.654633 359.173492,422.011993 
	C359.639191,429.651367 359.310638,437.338593 359.346771,445.004974 
	C359.375488,451.094757 362.411743,453.238495 369.065613,451.464905 
M388.756104,482.337097 
	C388.754669,480.838043 388.753510,479.338959 388.751740,477.839905 
	C388.742065,469.507874 388.584106,469.478119 380.492188,469.318726 
	C371.351501,469.138672 362.172028,470.062134 353.074982,468.454071 
	C347.919342,467.542725 344.170776,464.944794 342.552399,459.763855 
	C339.399078,449.669006 340.180969,439.413361 341.851959,429.264862 
	C342.649170,424.422882 341.116272,421.420410 336.251953,421.331024 
	C332.755402,421.266785 329.244385,421.486359 325.762726,421.246490 
	C321.733124,420.968933 320.128204,422.372375 320.244781,426.608917 
	C320.501160,435.928741 320.765259,445.287323 320.200958,454.579987 
	C319.618530,464.171295 317.855560,470.199860 305.177002,469.450623 
	C296.381256,468.930847 287.527710,469.448853 278.701874,469.345795 
	C275.606903,469.309662 274.098175,470.182861 274.292236,473.602753 
	C274.537140,477.919312 274.427917,482.261841 274.328094,486.589844 
	C274.268616,489.168610 275.013580,490.962128 277.901367,490.733734 
	C287.432007,489.980133 296.597687,493.513885 306.167358,492.878876 
	C313.376526,492.400452 317.619232,495.928101 319.425903,503.044678 
	C321.379517,510.739929 320.175751,518.621338 320.280273,526.412903 
	C320.475281,540.952576 320.335388,540.754883 334.813934,540.837830 
	C339.847687,540.866638 341.111786,538.855591 340.978912,534.312378 
	C340.721008,525.491943 340.301483,516.624939 340.911316,507.844116 
	C341.605530,497.848450 346.445129,489.966156 358.398621,490.655609 
	C366.035889,491.096130 373.716736,490.811035 381.377930,490.796814 
	C388.091919,490.784363 388.611389,490.219025 388.756104,482.337097 
z"/>
<path fill="#000000" opacity="1.000000" stroke="none" 
	d="
M640.680481,511.983093 
	C632.249084,513.124756 624.365845,512.942383 616.981812,508.943909 
	C607.651001,503.891327 603.188110,495.971558 602.680725,485.482544 
	C602.252380,476.628143 603.028625,468.124390 609.338867,461.253357 
	C618.316772,451.477478 633.087341,447.624603 645.313049,452.776245 
	C657.729187,458.008118 665.064819,469.730347 664.302368,483.290497 
	C663.521912,497.172119 655.148499,507.459595 640.680481,511.983093 
M620.558228,478.257751 
	C620.501648,479.583740 620.289917,480.924530 620.414795,482.233185 
	C621.039734,488.779541 627.674866,494.516785 634.224121,494.261261 
	C639.949829,494.037903 644.553345,488.962616 644.896240,482.495728 
	C645.257263,475.685547 641.883606,470.994507 635.345398,469.215271 
	C629.653625,467.666351 624.129456,470.825623 620.558228,478.257751 
z"/>
<path fill="#000000" opacity="1.000000" stroke="none" 
	d="
M727.681885,504.316345 
	C722.578857,498.881073 720.433411,492.422363 719.026428,485.718231 
	C716.387024,473.142151 726.506592,456.478271 738.820312,452.590210 
	C751.671143,448.532501 763.567688,449.689453 773.269287,459.711792 
	C783.117371,469.885376 783.506470,482.100342 778.541809,494.522949 
	C773.939819,506.037750 764.413147,511.305573 752.449768,512.363525 
	C743.265869,513.175659 734.978149,510.713928 727.681885,504.316345 
M738.415771,485.013184 
	C741.237000,491.373322 747.554504,496.012207 752.087646,494.395203 
	C760.925354,491.242645 763.506226,489.764008 762.698486,479.806091 
	C762.247681,474.249115 758.665588,471.338074 753.946899,469.323029 
	C749.120789,467.262115 744.840454,469.027985 741.535828,472.108795 
	C738.225891,475.194580 736.034119,479.326050 738.415771,485.013184 
z"/>
<path fill="#000000" opacity="1.000000" stroke="none" 
	d="
M717.081909,520.000366 
	C727.073059,534.972778 725.422729,553.435364 713.053406,563.656738 
	C696.189941,577.591797 668.612244,570.893005 663.729431,551.261230 
	C659.676575,534.966125 664.684814,515.670288 684.316467,510.399231 
	C697.655212,506.817780 707.567322,511.170929 717.081909,520.000366 
M681.733643,534.385193 
	C679.278259,540.102112 680.619873,545.896667 685.228333,549.478699 
	C690.314880,553.432373 696.150574,553.289307 701.160461,549.368103 
	C705.395874,546.052979 705.418579,541.498535 704.406372,537.155579 
	C703.195251,531.958923 699.392395,528.387634 694.096497,527.560425 
	C688.939331,526.754944 684.743042,529.016296 681.733643,534.385193 
z"/>
<path fill="#000000" opacity="1.000000" stroke="none" 
	d="
M723.326050,419.934814 
	C725.813782,439.504669 712.903198,455.703613 694.138306,455.584290 
	C681.996704,455.507019 671.592896,452.717102 666.147705,441.424622 
	C657.388794,423.259674 662.851807,400.402802 685.620605,395.301819 
	C702.269775,391.571808 719.201965,397.568481 723.326050,419.934814 
M682.937561,417.493622 
	C682.299133,418.659698 681.533630,419.774994 681.044189,421.000580 
	C678.849304,426.495789 682.843262,434.430145 688.742249,436.415894 
	C695.312378,438.627563 702.500366,435.832764 704.375488,430.337494 
	C706.347778,424.557404 704.243896,417.917542 699.459900,414.823730 
	C693.589233,411.027100 688.915100,411.627747 682.937561,417.493622 
z"/>
<path fill="#000000" opacity="1.000000" stroke="none" 
	d="
M476.489014,506.320679 
	C470.490143,504.544617 466.537903,500.014954 467.018982,495.953186 
	C467.564575,491.346558 474.119904,486.711151 480.552155,487.181702 
	C497.512146,488.422485 514.494385,487.227509 531.443542,487.984802 
	C537.901306,488.273346 544.332825,486.978241 550.835754,488.399414 
	C555.415161,489.400146 558.064392,491.470123 558.310852,496.186523 
	C558.549316,500.748962 555.883057,504.459625 551.251282,505.817352 
	C549.692261,506.274353 547.977417,506.343842 546.333557,506.345612 
	C523.200867,506.370636 500.068176,506.353302 476.489014,506.320679 
z"/>
</svg>